<svg id="Layer_1" data-name="Layer 1" xmlns="http://www.w3.org/2000/svg" viewBox="0 0 1558.5 525.29"><title>like-dislike-icon</title><path d="M93.65,84.24H49.58c-7,0-14,0-21,0C18,84.41,10.47,89.45,7.07,98.63,3.85,107.32,6.33,116.07,14,123c.6.55,1.31,1,2.19,1.63-7.76,12.86-6.37,24.11,5.11,33.51-7.26,17.09-5.66,24.48,7.34,34.38-1.06,3.87-2.74,7.69-3.05,11.62-1.05,13.64,8,23.47,21.64,23.6,21.34.18,42.68.1,64,0,11.46-.07,23,.21,34.35-.87,16.86-1.6,32.48-7,46.58-20.45,0,4.61-.09,7.53,0,10.43.25,6.94,3.8,10.78,10.67,10.86q21.91.27,43.84,0c7.45-.09,11.1-3.65,11.13-11.06q.18-55,0-109.91c0-7.69-3.75-11.29-11.47-11.36-14.2-.13-28.41-.2-42.6.07-3.28.07-6.54,1.63-11.44,3C169,84.65,145.83,68.26,133.51,40.68a37.35,37.35,0,0,1-3.09-11.82C129.23,15,120.92,6.37,108.36,6.43,96.05,6.5,87.09,15.7,86.27,29.11a144.23,144.23,0,0,0,6.19,50.52C92.8,80.77,93.06,81.94,93.65,84.24Zm14.74,10.15c-1.68-5-3.08-9.29-4.51-13.52A130.52,130.52,0,0,1,97,28.65c.54-7,5.73-12.21,11.72-12s9.62,4.91,11.18,11.79c1.88,8.32,3.92,17,8,24.36,13.15,24.09,34.34,40,57.46,53.65,4.76,2.8,7.09,6.36,7,11.93-.16,19.35-.54,38.72,0,58.06.38,13.27-5.69,22.35-15.94,29.39a62.51,62.51,0,0,1-34.25,10.82c-31.07.77-62.15.77-93.23,1a15.71,15.71,0,0,1-6-1.05,10.76,10.76,0,0,1-7.07-11.2,10.55,10.55,0,0,1,7.84-10c1.74-.54,3.89-.16,5.4-1,2.16-1.22,5.16-2.92,5.57-4.89.84-3.93-2.44-5-5.91-5.12-4.3-.16-8.71,0-12.86-.85-5.75-1.24-8.57-5.47-8.28-11.35.28-5.57,3.24-9.32,8.81-10.35a60.63,60.63,0,0,1,9.82-.68c3.61-.08,6.61-1.59,5.83-5.28-.41-1.94-3.57-4.21-5.81-4.64-4-.76-8.2-.06-12.31-.29-7.08-.4-12.16-5.27-12.25-11.45s4.88-11,12.09-11.62c2.45-.22,4.94-.11,7.41-.09,3.79,0,8.13.28,8.25-4.93s-4.09-5.24-8-5.2c-4.53,0-9.08.2-13.59-.1-6.93-.47-11.39-5.06-11.44-11.33s4.11-10.85,11.12-11.65a61.45,61.45,0,0,1,6.79-.16q33.36,0,66.71,0ZM213.65,206a11.81,11.81,0,0,1,11.48-11.42c5.88.06,11.44,5.7,11.44,11.6s-5.65,11.38-11.61,11.4S213.62,212.09,213.65,206Z" transform="translate(-5.7 -6.43)"/><path d="M1534.71,375.59H1549c2.26,0,4.52,0,6.79,0,3.43,0,5.85,1.67,7,4.64,1,2.81.24,5.64-2.24,7.89-.19.17-.42.31-.7.52,2.5,4.16,2,7.8-1.66,10.84,2.35,5.53,1.83,7.92-2.37,11.12a20.42,20.42,0,0,1,1,3.76,6.74,6.74,0,0,1-7,7.63c-6.9.06-13.8,0-20.71,0-3.7,0-7.42.07-11.1-.28a24.09,24.09,0,0,1-15.07-6.61c0,1.49,0,2.43,0,3.37-.08,2.25-1.23,3.49-3.45,3.51q-7.1.09-14.18,0c-2.41,0-3.59-1.18-3.6-3.57q-.06-17.78,0-35.55c0-2.48,1.21-3.65,3.71-3.67,4.59,0,9.18-.07,13.77,0a18.08,18.08,0,0,1,3.7,1c7.57-4.46,15-9.76,19-18.68a12.1,12.1,0,0,0,1-3.83c.39-4.47,3.07-7.27,7.14-7.25s6.88,3,7.14,7.34a46.76,46.76,0,0,1-2,16.33C1535,374.47,1534.91,374.85,1534.71,375.59Zm-4.76,3.29c.54-1.63,1-3,1.46-4.38a42.28,42.28,0,0,0,2.24-16.88,4,4,0,0,0-3.79-3.9c-2,.06-3.11,1.59-3.62,3.82a30.71,30.71,0,0,1-2.57,7.88c-4.25,7.78-11.11,12.94-18.59,17.34a4.07,4.07,0,0,0-2.27,3.86c0,6.26.17,12.52,0,18.78-.12,4.29,1.84,7.23,5.16,9.5a20.15,20.15,0,0,0,11.07,3.5c10,.25,20.1.25,30.15.33a5.18,5.18,0,0,0,2-.35,3.46,3.46,0,0,0,2.28-3.62,3.4,3.4,0,0,0-2.53-3.23c-.57-.18-1.26,0-1.75-.33-.7-.39-1.67-.94-1.8-1.58-.27-1.27.79-1.61,1.91-1.66a23.91,23.91,0,0,0,4.16-.27,3.61,3.61,0,0,0-.17-7,19.84,19.84,0,0,0-3.18-.22c-1.17,0-2.14-.52-1.88-1.71a2.71,2.71,0,0,1,1.88-1.5,30.91,30.91,0,0,1,4-.09,3.91,3.91,0,0,0,4-3.7c0-2-1.58-3.56-3.91-3.76a24,24,0,0,0-2.4,0c-1.22,0-2.62.09-2.67-1.59s1.33-1.7,2.58-1.69c1.47,0,2.94.07,4.4,0a3.66,3.66,0,0,0,3.7-3.66c0-2.08-1.33-3.51-3.6-3.77a20.08,20.08,0,0,0-2.2-.05H1530Zm-34,36.08a3.82,3.82,0,0,0-3.72-3.69,3.72,3.72,0,0,0,.06,7.44A3.82,3.82,0,0,0,1495.91,415Z" transform="translate(-5.7 -6.43)"/><path d="M1542.34,466.5c.62-1.94,1.09-3.74,1.82-5.43a2.3,2.3,0,0,1,1.8-.85c4.77-.09,9.54-.1,14.31-.07,2.74,0,3.9,1.14,3.9,3.89q0,17.58,0,35.15c0,2.57-1.23,3.74-3.84,3.76-4.53,0-9.06.07-13.58,0A18.61,18.61,0,0,1,1543,502c-6.11,3.46-12.12,7.8-16.51,14a18.09,18.09,0,0,0-3.65,9.54,6.77,6.77,0,0,1-6.12,6.11c-3.78.32-6.84-1.61-7.64-5.24-1.06-4.76-.43-9.53.56-14.24.38-1.8.87-3.57,1.38-5.63h-3.73c-5.46,0-10.92-.09-16.38,0-3.45.08-6.18-.95-7.66-4.22-1.41-3.11-.63-5.67,2.43-8.7a1.31,1.31,0,0,0,.16-.36c-2.26-5-1.89-7.21,1.41-10.28-.32-2.41-1.13-4.62-.73-6.57s2-3.53,3.35-5.63a7.34,7.34,0,0,1-.41-6.28,7.72,7.72,0,0,1,6.85-4.59c4.81.07,9.63.09,14.44.17,5.88.11,11.77.09,17.63.44a22.11,22.11,0,0,1,13.09,5.2c.3.25.62.49.93.73C1542.43,466.53,1542.52,466.51,1542.34,466.5Zm-26.56,36.78c-.8,2.56-1.54,4.82-2.21,7.1a39.64,39.64,0,0,0-1.44,14.21,3.9,3.9,0,0,0,3.63,3.83,3.58,3.58,0,0,0,3.67-3.26c.33-4.94,2.55-9,5.53-12.79a54.15,54.15,0,0,1,15.76-13,4.06,4.06,0,0,0,2.25-3.88c0-6.32-.15-12.65,0-19a10.12,10.12,0,0,0-4.23-8.57,20.22,20.22,0,0,0-12.24-4.21c-8.25-.27-16.5-.24-24.75-.32-1.93,0-3.87-.11-5.79,0a3.68,3.68,0,0,0-3.16,5.48,4,4,0,0,0,3.68,2c1.07,0,2,.27,2,1.63s-1.06,1.63-2.22,1.66a23.64,23.64,0,0,0-3.77.22,3.28,3.28,0,0,0-2.84,3.55,3.31,3.31,0,0,0,2.88,3.53c1,.2,2.17,0,3.15.28.74.22,1.76.89,1.88,1.52.23,1.18-.74,1.68-1.91,1.69a38.8,38.8,0,0,0-4.58.13,3.64,3.64,0,0,0,0,7.26,23.85,23.85,0,0,0,3.59.12c1.16,0,2,.41,2,1.64s-.88,1.65-2,1.63c-1.66,0-3.33-.08-5,.06a3.63,3.63,0,0,0-3.64,4.1c.19,2.15,1.8,3.35,4.63,3.35,7.53,0,15,0,22.57,0Zm41.49-7.45a3.91,3.91,0,0,0-3.82-3.61,3.71,3.71,0,0,0,.21,7.42A3.87,3.87,0,0,0,1557.27,495.83Z" transform="translate(-5.7 -6.43)"/></svg>