<svg viewBox="0 0 363.74 129.73"><title>Asset 2</title><g id="Layer_2"><g id="Ebene_1"><path fill="#f45334" d="M363.74,73A56.69,56.69,0,1,1,307,16.3,56.71,56.71,0,0,1,363.74,73Z"></path><path fill="#fff" d="M313.36,97.23a17.64,17.64,0,0,0-5.49-1.16,32.72,32.72,0,0,0-8.63.83c-2.89.62-5.79,1.15-8.69,1.7a84.94,84.94,0,0,1-8.37,1.62c-4.86.42-3.71-.11-.87-5.38s6.55-11.82,9.92-18.18c4.49-8.44,7.57-17.39,3.13-26.8-6.14-13-24.25-3.58-30.48,4.34-2.36,3,6.7,4.07,8.78,2.07,4.51-6,12.25-10.05,13.29-.77.42,3.78-.8,7.89-2.33,11.4-3.84,8.75-9,16.39-13.83,24.41-3.17,5.24-5.07,11.27,1.58,13.5a18.7,18.7,0,0,0,6.49,1,46,46,0,0,0,7.61-1.21c3.79-.75,7.58-1.53,11.39-2.18,2-.33,3.92-.75,5.89-.91a35.35,35.35,0,0,1,7.58.15c1,.14,2,.44,3,.5s3-1.36,3.1-2.44C316.55,98.4,314.21,97.57,313.36,97.23Z"></path><path fill="#fff" d="M353.24,68.24a24.24,24.24,0,0,0-5.75.28q-1,.14-1.94.33c-1.23.23-2.45.49-3.67.76,1-5.42,2.35-11.27,3.43-16.13.83-3.73.4-8.48-1-10.91-.42-.71-2.6-1.33-3.75-.95a7.15,7.15,0,0,0-3,2.86,34.6,34.6,0,0,0-2.38,5c-2.43,7.43-3.64,14.14-5.17,21.81-.07.34-.12.68-.19,1l-2.18.48a76,76,0,0,1-7.57,1.7c-1.05.11-2.52.57-3.11-.48-.43-.77.12-2.39.31-3.19a56.06,56.06,0,0,1,2.22-7.17c3.94-10.28,5.14-12.08,6.05-18.42a7.82,7.82,0,0,0-.41-4.27,2.18,2.18,0,0,0-2.26-1.4,8,8,0,0,0-3.61.58,5.24,5.24,0,0,0-1,.63,13.73,13.73,0,0,0-1.89,2c-.19.25-.36.51-.52.77a47,47,0,0,0-3.38,6c-.94,2.16-1.84,4.35-2.67,6.56a115.11,115.11,0,0,0-4.09,13.28q-.26,1.08-.51,2.17c-1.15,5.09-1.27,9.92,6.92,9.16A93.81,93.81,0,0,0,329,77.24c-.21,1.29-.41,2.58-.58,3.88-.22,1.73-1.27,9.68-1.41,11.41a52,52,0,0,0-.27,6.57,22,22,0,0,0,.13,2.27,3.61,3.61,0,0,0,.6,1.76,3.5,3.5,0,0,0,3.12.68,5.74,5.74,0,0,0,3.3-1.42,10.51,10.51,0,0,0,2.07-3.45,28.83,28.83,0,0,0,1.94-6.12c.79-3.75,2.43-13.72,3-17.5.07-.45.16-.93.23-1.39,1-.24,2-.47,3-.68a42.76,42.76,0,0,1,6.62-.93,40.1,40.1,0,0,1,4-.06c.74,0,3.84.56,3.68-1C358.17,69,355.06,68.4,353.24,68.24Z"></path><path fill="#354044" d="M240.58,91.78l-.24.2c-3.94,3.53-16.08,12-20,3.73-1.6-3.41-1.44-7.94-1.42-11.62,0-3.08.27-6.38.51-9.69,5.59-.08,13.6-5.16,13.67-17.71,0-7.87-7.59-8.37-9.64-8.38-16.07-.09-19.52,24.06-19.59,35.12,0,.38,0,.73,0,1.1-4.09,7.52-8.57,14.16-12.77,14.34-2.08.09-3-3.33-3-7.39,0-7.19,2.41-15.2,3.52-22.77s0-12.72-5.93-13c-14-.73-21.87,18.46-22.58,19.61.25-10.09-2.74-16.09-12-16.33-6.5-.17-13.06,9.87-13.06,9.87s0-.81,0-2.08c.11-4.29-.43-14.11-8.41-14.15h-.12c-2.08,0-5.76,2-9.16,3.9-5,2.83-15.56,5.8-16.19,4.87a19.28,19.28,0,0,0-14.41-8.45c-8.49-1-15.31,2.36-15.76,7a5.33,5.33,0,0,0,1.1,3.56A16.6,16.6,0,0,0,70,69.74c-1.83,2.94-3.41,8.44-4.27,11.16a44.05,44.05,0,0,1-3.78,8.39c-2.24,4.07-5.89,10.33-9.25,12-1.06.53-3,1.24-3.89-.2-1-1.61-.26-6.31.31-8.72.75-3.22,2-8.58,2.82-11.82,1-4,1.83-8.89,2.36-12.49C55,63,54.6,57.41,49.92,54.72c-6.44-3.69-14.28-2-19.81,2.59-3.53,2.9-5.69,6.53-8.33,11.07-.83,1.44-2.43,4.81-2.43,4.81S20.65,63.9,21,61.38c2.15-15.75,4-31.2,7.28-46.82C29,11.06,30.15,8.14,30,4.47c-.07-2-.55-3.27-1.29-3.92-2.74-2.37-9,3.38-10.88,6.52-4.18,7-6.22,15.35-8,23.23C4.69,53.89.08,102.92,0,103.89c-.14,2.44.23,6.75,4.13,7a12.36,12.36,0,0,0,6.52-1.18c3.15-1.25,5-4.11,6.52-7.8,1.69-4,3.77-9.49,5.46-14s2.73-7.67,4.74-11.37c1.65-3,4.32-6.6,7.81-7.67,1.28-.39,4-.92,3.53,1.26-.22.92-3.16,11.73-3.91,14.76-.52,2.11-1,4.6-1.41,6.74-2,11.23,5.43,22.34,17.87,18.55C57.16,108.4,61.66,104.4,65,99.6c.48-.69,1-1.49,1.46-2.34a19.32,19.32,0,0,0,16.75,13.63c7.84.39,24.44-5,24.53-34.64,0-2.05-.34-5.41-.51-7.13,0,.23,6.49-.85,11.31-2.42A23.38,23.38,0,0,0,122,65.25c-2.48,11.6-3,28.48-3.15,34.7-.21,9.28,1.81,10.84,5,10.92a24.52,24.52,0,0,0,3.47-.26c7.35-2.13,7.37-7.35,7.37-7.35.48-24.81,13.53-37.42,16.4-37.35.91,0,1.14,1.08,1.19,2.7.14,5.46-1,11-3.6,20.66-1.38,5.12-2.25,9.15-2.32,11.58-.21,8.23,4.68,8.83,5.6,8.85h.11a5.46,5.46,0,0,0,5.65-4.26C168,73.07,177.1,68.8,177.1,68.8c-1.81,8.31-3.85,17-4,24.27-.24,9.57,3.37,18.05,14.36,17.56,6.51-.29,12.79-7.47,17.67-15.11,3.26,14.1,12.46,15.36,16.34,15.38a23.69,23.69,0,0,0,17.36-7.76c1.29-1.42,2.59-2.89,3.74-4.43.87-1.16,3.13-3.8,3.17-5.34C245.79,90.1,242.37,90.43,240.58,91.78Zm-18.94-35a4.31,4.31,0,0,1,3.21-2.26c.91,0,1.59.69,1.58,2.63-.05,9.12-5.3,10.12-6.22,10.34C220.7,63.47,220.37,59.59,221.64,56.75ZM93.79,81.35c-.64,10.81-3,21.69-7.78,21.53-4.1-.14-6.11-7.76-6.07-15.4,0-9,3.75-20,3.75-20s3,.7,4.45.87,4.61.44,4.61.44A37,37,0,0,1,93.79,81.35Z"></path></g></g></svg>